<svg width="24" height="23" viewBox="0 0 24 23" fill="none" xmlns="http://www.w3.org/2000/svg">
<g filter="url(#filter0_d_2338_16236)">
<path d="M19.8452 11.6071C20.0469 11.4047 20.0523 11.0548 19.8568 10.8449L13.6193 4.14758C13.3213 3.82761 12.8235 4.06221 12.8235 4.52263V7.31839C10.4919 7.27835 8.74025 7.95581 7.43851 8.994C6.11642 10.0484 5.27404 11.4623 4.75496 12.8328C4.23635 14.2019 4.0365 15.5376 4.00467 16.4534C3.98898 16.9051 4.01322 17.2778 4.07147 17.5056C4.08636 17.5638 4.10648 17.6249 4.13539 17.6789C4.16084 17.7264 4.21469 17.8092 4.31253 17.8438C4.43025 17.8854 4.53017 17.832 4.58808 17.7767C4.64035 17.7269 4.67547 17.6626 4.69978 17.6086L4.70287 17.6017L4.70535 17.5953L4.70559 17.5947L4.70618 17.5932L4.71098 17.5816C4.71561 17.5706 4.72314 17.5532 4.7338 17.5299C4.75514 17.4835 4.78896 17.4138 4.83706 17.326C4.93329 17.1504 5.08647 16.9025 5.31085 16.6221C5.75903 16.0619 6.49269 15.3702 7.62879 14.8654C8.27548 14.578 9.3534 14.4472 10.4103 14.4261C11.4188 14.4059 12.3594 14.486 12.8235 14.5997V17.4774C12.8235 17.9294 13.3057 18.1674 13.6076 17.8645L19.8452 11.6071Z" fill="#F9708D"/>
<path d="M17.9236 10.8627C18.3741 10.2809 17.9236 9.45087 17.9236 9.45087L17.1461 7.93635L13.6193 4.14758C13.3213 3.82761 12.8235 4.06221 12.8235 4.52263V7.31839C10.4919 7.27835 8.74025 7.95581 7.43851 8.994C6.11642 10.0484 5.27404 11.4623 4.75496 12.8328C4.23635 14.2019 4.0365 15.5376 4.00467 16.4534C3.98898 16.9051 4.01322 17.2778 4.07147 17.5056C4.08636 17.5638 4.10648 17.6249 4.13539 17.6789C4.16084 17.7264 4.21469 17.8092 4.31253 17.8438C4.43025 17.8854 4.53017 17.832 4.58808 17.7767C4.64035 17.7269 4.67547 17.6626 4.69978 17.6086L4.70287 17.6017L4.70535 17.5953L4.70559 17.5947L4.70618 17.5932L4.71098 17.5816C4.71561 17.5706 4.72314 17.5532 4.7338 17.5299C4.75514 17.4835 4.78896 17.4138 4.83706 17.326C4.93329 17.1504 5.08647 16.9025 5.31085 16.6221C5.75903 16.0619 8.24581 14.1017 9.65432 13.3193C10.8281 12.5369 12.8235 12.0153 12.8235 12.0153V15.1448C12.8235 15.5968 13.3057 15.8349 13.6076 15.5319L17.9236 10.8627Z" fill="#FF829D"/>
</g>
<defs>
<filter id="filter0_d_2338_16236" x="0" y="0.33" width="24" height="22" filterUnits="userSpaceOnUse" color-interpolation-filters="sRGB">
<feFlood flood-opacity="0" result="BackgroundImageFix"/>
<feColorMatrix in="SourceAlpha" type="matrix" values="0 0 0 0 0 0 0 0 0 0 0 0 0 0 0 0 0 0 127 0" result="hardAlpha"/>
<feOffset dy="0.33"/>
<feGaussianBlur stdDeviation="2"/>
<feColorMatrix type="matrix" values="0 0 0 0 0 0 0 0 0 0 0 0 0 0 0 0 0 0 0.1 0"/>
<feBlend mode="normal" in2="BackgroundImageFix" result="effect1_dropShadow_2338_16236"/>
<feBlend mode="normal" in="SourceGraphic" in2="effect1_dropShadow_2338_16236" result="shape"/>
</filter>
</defs>
</svg>
